<svg width="25" height="22" viewBox="0 0 25 22" fill="none" xmlns="http://www.w3.org/2000/svg">
<path d="M6.39035 14.6472C6.03819 14.3703 5.60331 14.2195 5.15529 14.2189C4.85772 14.2177 4.56368 14.2835 4.29508 14.4116C4.02647 14.5397 3.79018 14.7266 3.60382 14.9586C3.44071 15.1602 3.3195 15.3922 3.2471 15.6412C3.1747 15.8902 3.15257 16.1511 3.18217 16.4087C3.21086 16.6671 3.29087 16.9171 3.41741 17.1442C3.54395 17.3713 3.71451 17.5709 3.91915 17.7313C4.27111 18.0087 4.70609 18.1597 5.15421 18.1601C5.45189 18.1613 5.74607 18.0954 6.01469 17.9671C6.28332 17.8388 6.51949 17.6516 6.70568 17.4194C6.86877 17.2181 6.98999 16.9863 7.0624 16.7376C7.1348 16.4889 7.15692 16.2283 7.12733 15.971C7.09873 15.7125 7.01893 15.4622 6.89249 15.2349C6.76605 15.0077 6.59546 14.8079 6.39089 14.6472H6.39035ZM6.00252 16.8531C5.90089 16.9796 5.77199 17.0815 5.62551 17.1514C5.47902 17.2212 5.31865 17.2571 5.15637 17.2564C4.91148 17.2573 4.67372 17.1746 4.48216 17.0221C4.37138 16.9354 4.27904 16.8275 4.21053 16.7046C4.14202 16.5818 4.09862 16.4465 4.0831 16.3067C4.06725 16.1678 4.07931 16.0271 4.11841 15.8929C4.15751 15.7587 4.22293 15.6336 4.31091 15.5249C4.41265 15.3985 4.54158 15.2967 4.68805 15.227C4.83452 15.1573 4.99483 15.1214 5.15705 15.1221C5.40205 15.121 5.63996 15.2035 5.8318 15.3559C5.94251 15.4426 6.03493 15.5506 6.10343 15.6734C6.17193 15.7962 6.21526 15.9315 6.23086 16.0712C6.24657 16.21 6.23452 16.3504 6.19542 16.4845C6.15632 16.6185 6.09089 16.7434 6.00306 16.8519L6.00252 16.8531Z" fill="white"/>
<path d="M14.3375 10.0179C14.6344 10.0182 14.9276 9.95173 15.1953 9.82336C15.4308 9.71178 15.6417 9.55439 15.8157 9.36042C15.9897 9.16644 16.1232 8.93976 16.2087 8.69358C16.2947 8.44986 16.3312 8.19145 16.3162 7.93343C16.3012 7.67542 16.2349 7.42299 16.1211 7.19091C15.957 6.8566 15.7025 6.57493 15.3865 6.3778C15.0705 6.18068 14.7055 6.07598 14.3331 6.07553C14.0358 6.07514 13.7423 6.1418 13.4744 6.27057C13.2388 6.38183 13.0277 6.53897 12.8536 6.73277C12.6795 6.92657 12.5458 7.15314 12.4603 7.39923C12.3743 7.64304 12.3376 7.90157 12.3527 8.15968C12.3677 8.41779 12.4341 8.67031 12.5479 8.90248C12.7127 9.23663 12.9675 9.5181 13.2837 9.71517C13.6 9.91224 13.9649 10.0171 14.3375 10.0179ZM13.3136 7.69789C13.3601 7.56484 13.4326 7.44241 13.527 7.33775C13.6214 7.23309 13.7357 7.14833 13.8633 7.0884C14.0097 7.01806 14.1701 6.98168 14.3325 6.98201C14.5355 6.98196 14.7344 7.0387 14.9068 7.14583C15.0791 7.25296 15.218 7.40619 15.3077 7.58818C15.3691 7.71318 15.4049 7.84916 15.4131 7.98815C15.4213 8.12715 15.4017 8.26637 15.3555 8.3977C15.3088 8.53064 15.2361 8.653 15.1418 8.75763C15.0474 8.86226 14.9332 8.94707 14.8057 9.00718C14.6596 9.07736 14.4996 9.11373 14.3375 9.11357C14.1341 9.11324 13.9347 9.05598 13.7621 8.94827C13.5895 8.84056 13.4505 8.68671 13.3607 8.50409C13.2994 8.37917 13.2637 8.24326 13.2556 8.10435C13.2475 7.96544 13.2673 7.8263 13.3136 7.69511V7.69789Z" fill="white"/>
<path d="M9.41983 6.82354C9.56531 6.85633 9.714 6.8729 9.86313 6.87288C10.3116 6.87561 10.7476 6.72536 11.0991 6.44693C11.4507 6.1685 11.6968 5.77852 11.7969 5.34136C11.8549 5.08975 11.8624 4.82915 11.8189 4.57462C11.7755 4.3201 11.6819 4.07674 11.5437 3.85865C11.4052 3.63753 11.2241 3.44614 11.0111 3.29556C10.798 3.14499 10.5572 3.03824 10.3025 2.98152C10.1571 2.94832 10.0085 2.93157 9.85934 2.93164C9.41111 2.92913 8.97533 3.07958 8.62415 3.35813C8.27297 3.63668 8.02735 4.02667 7.92775 4.4637C7.86934 4.71518 7.86143 4.97576 7.90462 5.2303C7.9478 5.48485 8.04114 5.72826 8.17923 5.94641C8.31792 6.16768 8.49926 6.35919 8.71262 6.50977C8.92597 6.66034 9.16719 6.76699 9.42213 6.82354H9.41983ZM8.80704 4.66593C8.86157 4.42819 8.99571 4.21619 9.18716 4.06504C9.37861 3.9139 9.61597 3.83267 9.85988 3.8348C9.94192 3.8351 10.0236 3.84438 10.1036 3.8625C10.2423 3.89337 10.3734 3.95143 10.4895 4.03332C10.6055 4.11521 10.7041 4.21931 10.7796 4.33958C10.8541 4.45711 10.9045 4.58824 10.928 4.72539C10.9515 4.86253 10.9476 5.00297 10.9165 5.13858C10.8597 5.37513 10.7249 5.58569 10.534 5.73643C10.343 5.88718 10.1069 5.96935 9.86367 5.96971C9.78184 5.96967 9.70028 5.96056 9.62045 5.94256C9.4818 5.91193 9.3507 5.85402 9.23464 5.77221C9.11859 5.6904 9.01992 5.58634 8.94448 5.46605C8.87019 5.34845 8.81992 5.21725 8.79662 5.08011C8.77332 4.94297 8.77738 4.80259 8.80866 4.66705L8.80704 4.66593Z" fill="white"/>
<path d="M5.82835 7.95117C6.03266 7.79041 6.20289 7.59054 6.32914 7.36326C6.45538 7.13599 6.53505 6.88585 6.56357 6.62744C6.59316 6.37006 6.57121 6.10938 6.49891 5.8606C6.4266 5.61182 6.30539 5.37993 6.14246 5.17851C5.95588 4.94675 5.71962 4.75994 5.45107 4.63189C5.18251 4.50385 4.88851 4.43788 4.59099 4.43882C4.14314 4.43937 3.70855 4.59016 3.3566 4.8671C3.15223 5.02737 2.98176 5.22681 2.85541 5.45372C2.72906 5.68064 2.64931 5.93047 2.62071 6.1886C2.59088 6.44646 2.61283 6.70769 2.68523 6.95697C2.75764 7.20624 2.87903 7.43855 3.04236 7.64031C3.22877 7.87228 3.46503 8.05931 3.73361 8.18746C4.0022 8.31561 4.29624 8.3816 4.59383 8.38057C5.04183 8.37983 5.47661 8.22862 5.82835 7.95117V7.95117ZM3.74714 7.07293C3.65886 6.9641 3.59317 6.83874 3.55397 6.7042C3.51477 6.56967 3.50293 6.42867 3.51893 6.28945C3.53427 6.14989 3.57736 6.01481 3.64569 5.89215C3.71401 5.76949 3.80619 5.66174 3.91678 5.57523C4.10839 5.42328 4.34589 5.34101 4.59045 5.34195C4.75286 5.34119 4.91338 5.37696 5.06012 5.44659C5.20686 5.51622 5.33608 5.61794 5.43821 5.74423C5.52592 5.85291 5.59113 5.97798 5.63003 6.11211C5.66894 6.24623 5.68087 6.38676 5.66494 6.52551C5.64948 6.66541 5.60618 6.80081 5.53778 6.92382C5.46937 7.04684 5.3771 7.15498 5.26642 7.24192C5.07547 7.39399 4.83847 7.47646 4.59437 7.47575C4.43183 7.47653 4.27119 7.44068 4.12442 7.37084C3.97765 7.301 3.84852 7.199 3.7466 7.07239L3.74714 7.07293Z" fill="white"/>
<path d="M24.3155 3.52805C24.2582 3.47108 24.1899 3.42635 24.1148 3.39663C24.0396 3.36691 23.9592 3.35282 23.8784 3.35517C23.6202 3.35517 22.9365 3.35514 18.7753 6.89575C18.6917 6.96668 18.6091 7.03872 18.5226 7.11186C17.7673 5.1531 16.4734 3.44792 14.7903 2.19322C12.8706 0.762934 10.539 -0.00635728 8.14514 0.000719781V0.000719781C6.32249 0.0555028 4.54275 0.56724 2.96939 1.48898C1.05557 2.61378 0.00225375 4.11869 0.00280784 5.72498C0.00280784 7.66429 1.09768 8.47604 1.97701 9.1282C2.69344 9.66012 3.25968 10.0801 3.26023 10.9999C3.26078 11.9197 2.69453 12.3397 1.97809 12.8711C1.09931 13.5227 0.00508154 14.3333 0.00618971 16.2731C0.00618971 17.88 1.0589 19.3843 2.97493 20.5108C4.54889 21.4333 6.3293 21.9458 8.15286 22.0013H8.15624C9.61025 22.0063 11.051 21.7247 12.396 21.1724C13.7411 20.6201 14.964 19.808 15.9949 18.7826C18.0496 16.7608 19.2174 14.0059 19.2418 11.1234C19.9438 10.325 20.6237 9.53101 21.2442 8.78243C22.3064 7.50305 23.1227 6.44696 23.6712 5.64409C24.3976 4.5808 24.7162 3.92644 24.3184 3.52805H24.3155ZM15.3554 18.1398C14.4081 19.0819 13.2842 19.8279 12.0482 20.3352C10.8122 20.8424 9.48834 21.1009 8.15231 21.0959H8.14961C5.23345 21.0959 0.907134 19.0696 0.90658 16.272C0.90658 14.7871 1.68613 14.2086 2.51338 13.5963C3.28577 13.0234 4.1613 12.3746 4.1613 10.9993C4.1613 9.62408 3.2847 8.97471 2.51175 8.40123C1.68506 7.78786 0.904821 7.20884 0.904821 5.72444C0.904821 4.00677 2.48399 2.82102 3.42594 2.26749C4.86179 1.43104 6.48216 0.9626 8.14285 0.903883V0.903883C10.3425 0.897486 12.485 1.60437 14.2489 2.91853C15.885 4.13665 17.1184 5.81734 17.7896 7.74352C15.8287 9.45565 13.7053 11.4293 12.1245 13.0157C9.49816 13.3559 9.14027 15.1057 8.87874 16.3917C8.65711 17.4866 8.51194 18.0157 7.66641 18.0839C7.56527 18.0919 7.46972 18.1338 7.39532 18.2027C7.32092 18.2717 7.27202 18.3638 7.25639 18.464C7.24058 18.5643 7.25895 18.667 7.3086 18.7555C7.35826 18.8441 7.43625 18.9133 7.53005 18.9521C8.44232 19.3031 9.40957 19.4896 10.3869 19.5029V19.5029C11.3379 19.5321 12.2747 19.2674 13.0698 18.7449C14.0227 18.0369 14.6702 16.9926 14.8806 15.8243C15.914 14.7793 17.0969 13.5188 18.2605 12.2227C17.9898 14.4686 16.9643 16.5559 15.3521 18.1426L15.3554 18.1398ZM13.9741 15.7384C13.4949 17.6367 12.2902 18.5992 10.3885 18.5986C9.92277 18.595 9.4586 18.5436 9.00333 18.4452C9.42932 17.9054 9.69395 17.2561 9.76642 16.5723C10.0146 15.3534 10.25 14.1959 12.1716 13.921L13.9741 15.7384ZM20.2164 8.59958C18.4245 10.7345 16.2559 13.1315 14.4701 14.955L14.193 14.6779L12.9739 13.4489C14.593 11.8371 16.6691 9.91555 18.6073 8.23389C18.8328 8.03775 19.0579 7.84603 19.2784 7.65542C20.5431 6.51971 21.8895 5.47838 23.3066 4.5398C22.3772 5.96745 21.3441 7.3249 20.2159 8.60123L20.2164 8.59958Z" fill="white"/>
</svg>
