<svg xmlns="http://www.w3.org/2000/svg" xmlns:xlink="http://www.w3.org/1999/xlink" viewBox="0 0 567.38 259.11"><defs><style>.cls-1{isolation:isolate;}.cls-2{fill:#89cdc9;}.cls-3{opacity:0.76;mix-blend-mode:multiply;fill:url(#linear-gradient);}.cls-4{opacity:0.57;fill:url(#linear-gradient-2);}.cls-5{opacity:0.6;fill:url(#linear-gradient-3);}.cls-6{opacity:0.5;}.cls-7{fill:url(#linear-gradient-4);}.cls-8{fill:url(#linear-gradient-5);}.cls-9{fill:#4d4d4d;}.cls-10{opacity:0.46;fill:url(#linear-gradient-6);}.cls-11{opacity:0.67;fill:url(#linear-gradient-7);}.cls-12{opacity:0.35;fill:url(#linear-gradient-8);}</style><linearGradient id="linear-gradient" y1="172.05" x2="567.38" y2="172.05" gradientUnits="userSpaceOnUse"><stop offset="0" stop-color="gray"/><stop offset="1" stop-color="#b2b2b2"/></linearGradient><linearGradient id="linear-gradient-2" x1="248.79" y1="35.19" x2="218.05" y2="147.17" gradientUnits="userSpaceOnUse"><stop offset="0" stop-color="gray"/><stop offset="0.7" stop-color="#818181"/><stop offset="1" stop-color="#b2b2b2"/></linearGradient><linearGradient id="linear-gradient-3" x1="286.36" y1="220.37" x2="272.19" y2="3.65" gradientUnits="userSpaceOnUse"><stop offset="0" stop-color="#4d4d4d"/><stop offset="1" stop-color="#333"/></linearGradient><linearGradient id="linear-gradient-4" x1="271" y1="-6.23" x2="351.35" y2="164.99" gradientUnits="userSpaceOnUse"><stop offset="0" stop-color="#e5e5e5"/><stop offset="1" stop-color="#cbcbcb" stop-opacity="0"/></linearGradient><linearGradient id="linear-gradient-5" x1="269.67" y1="-5.61" x2="299.83" y2="58.66" xlink:href="#linear-gradient-4"/><linearGradient id="linear-gradient-6" x1="2.85" y1="73.63" x2="209.81" y2="221.58" xlink:href="#linear-gradient"/><linearGradient id="linear-gradient-7" x1="145.02" y1="276.96" x2="376.64" y2="212.12" gradientUnits="userSpaceOnUse"><stop offset="0" stop-color="gray"/><stop offset="1" stop-color="#b2b2b2" stop-opacity="0"/></linearGradient><linearGradient id="linear-gradient-8" x1="360.93" y1="218.09" x2="584.18" y2="51.93" gradientUnits="userSpaceOnUse"><stop offset="0" stop-color="#fff"/><stop offset="0.38" stop-color="#b2b2b2" stop-opacity="0"/></linearGradient></defs><title>splayer4</title><g class="cls-1"><g id="Слой_2" data-name="Слой 2"><g id="Map"><polygon class="cls-2" points="0 84.98 274.11 129.97 567.38 84.98 411.65 259.11 148.16 259.11 0 84.98"/><polygon class="cls-3" points="0 84.98 274.11 129.97 567.38 84.98 411.65 259.11 148.16 259.11 0 84.98"/><path class="cls-2" d="M124.28,195.79C130.92,190,272.3,0,272.3,0L443.11,200.79Z"/><path class="cls-4" d="M279.82,193.76S263.51,79.21,272.3,0L121.18,201.1l162.51,6-.74-13.3Z"/><path class="cls-5" d="M272.3,0l.28.32c3.25,29.36,19.93,184.05,19.48,193.44H279.82S263.51,79.21,272.3,0Z"/><g class="cls-6"><path class="cls-7" d="M292.07,198.42l151,2.37L272.58.32c3.25,29.36,19.93,184.05,19.48,193.44"/><path class="cls-8" d="M272.31,0h0V0Z"/></g><polygon class="cls-2" points="0 84.98 119.14 259.11 444.91 259.11 567.38 84.98 283.69 172.05 0 84.98"/><path class="cls-9" d="M342,213.08l-4.81,15.86a2,2,0,0,0,1.31,2.46l33.63,10.21a2,2,0,0,0,2.46-1.31l4.82-15.86s1.54-4.83-2.84-7.26c-3.25-1.8-6-4.36-7-6.83L358,206.84c-2.23,1.48-5.9,2.09-9.62,1.78-5-.4-6.39,4.46-6.39,4.46Z"/><path class="cls-9" d="M424.68,187.76a1.08,1.08,0,0,0,.27-1.12,17.33,17.33,0,0,0-.83-1.89,2,2,0,0,1,2.54-2.7c.45.2.92.41,1.38.64a1,1,0,0,0,1.3-.34,39.74,39.74,0,0,0,6.16-15.26,1,1,0,0,0-1.7-.94c-2.94,2.63-9.54,6.15-23.63,5.71-19.4-.61-29.08,11.21-32.89,17.66-3.58,1.84-7.12,3.8-10.59,5.84a1.32,1.32,0,0,0-.25.16l7.4,2.25q2.87-1.59,5.76-3.1c23.37,5.46,37.07.52,45.08-6.91Z"/><path class="cls-9" d="M370.18,199.87l-12-3.64a2,2,0,0,0-2.46,1.31l-1,3.41a2,2,0,0,0,1.31,2.46l17.11,5.19a2,2,0,0,0,2.46-1.31l1-3.41a2,2,0,0,0-1.32-2.46Z"/><polygon class="cls-10" points="283.69 172.05 0 84.98 119.14 259.11 283.69 172.05"/><polygon class="cls-11" points="119.14 259.11 283.69 172.05 444.91 259.11 119.14 259.11"/><polygon class="cls-12" points="283.69 172.05 444.91 259.11 536.77 94.38 283.69 172.05"/></g></g></g></svg>