<svg xmlns="http://www.w3.org/2000/svg" xmlns:xlink="http://www.w3.org/1999/xlink" viewBox="0 0 652.45 297.96"><defs><style>.cls-1{isolation:isolate;}.cls-2{fill:#f16960;}.cls-3{opacity:0.76;mix-blend-mode:multiply;fill:url(#linear-gradient);}.cls-4{opacity:0.57;fill:url(#linear-gradient-2);}.cls-5{opacity:0.6;fill:url(#linear-gradient-3);}.cls-6{opacity:0.5;}.cls-7{fill:url(#linear-gradient-4);}.cls-8{fill:url(#linear-gradient-5);}.cls-9{opacity:0.46;fill:url(#linear-gradient-6);}.cls-10{opacity:0.67;fill:url(#linear-gradient-7);}.cls-11{opacity:0.35;fill:url(#linear-gradient-8);}</style><linearGradient id="linear-gradient" y1="197.84" x2="652.45" y2="197.84" gradientUnits="userSpaceOnUse"><stop offset="0" stop-color="gray"/><stop offset="1" stop-color="#b2b2b2"/></linearGradient><linearGradient id="linear-gradient-2" x1="286.09" y1="40.47" x2="250.75" y2="169.23" gradientUnits="userSpaceOnUse"><stop offset="0" stop-color="gray"/><stop offset="0.7" stop-color="#818181"/><stop offset="1" stop-color="#b2b2b2"/></linearGradient><linearGradient id="linear-gradient-3" x1="329.29" y1="253.41" x2="313" y2="4.19" gradientUnits="userSpaceOnUse"><stop offset="0" stop-color="#4d4d4d"/><stop offset="1" stop-color="#333"/></linearGradient><linearGradient id="linear-gradient-4" x1="311.63" y1="-7.17" x2="404.02" y2="189.72" gradientUnits="userSpaceOnUse"><stop offset="0" stop-color="#e5e5e5"/><stop offset="1" stop-color="#cbcbcb" stop-opacity="0"/></linearGradient><linearGradient id="linear-gradient-5" x1="310.1" y1="-6.45" x2="344.78" y2="67.45" xlink:href="#linear-gradient-4"/><linearGradient id="linear-gradient-6" x1="3.27" y1="84.67" x2="241.27" y2="254.8" xlink:href="#linear-gradient"/><linearGradient id="linear-gradient-7" x1="166.76" y1="318.48" x2="433.11" y2="243.93" gradientUnits="userSpaceOnUse"><stop offset="0" stop-color="gray"/><stop offset="1" stop-color="#b2b2b2" stop-opacity="0"/></linearGradient><linearGradient id="linear-gradient-8" x1="415.04" y1="250.78" x2="671.77" y2="59.71" gradientUnits="userSpaceOnUse"><stop offset="0" stop-color="#fff"/><stop offset="0.38" stop-color="#b2b2b2" stop-opacity="0"/></linearGradient></defs><title>splayer3</title><g class="cls-1"><g id="Слой_2" data-name="Слой 2"><g id="Map"><polygon class="cls-2" points="0 97.72 315.2 149.46 652.45 97.72 473.36 297.96 170.38 297.96 0 97.72"/><polygon class="cls-3" points="0 97.72 315.2 149.46 652.45 97.72 473.36 297.96 170.38 297.96 0 97.72"/><path class="cls-2" d="M142.91,225.15C150.55,218.44,313.13,0,313.13,0L509.54,230.89Z"/><path class="cls-4" d="M321.77,222.81S303,91.09,313.13,0L139.34,231.24l186.88,6.86-.84-15.29Z"/><path class="cls-5" d="M313.13,0l.31.37c3.74,33.76,22.92,211.64,22.4,222.44H321.77S303,91.09,313.13,0Z"/><g class="cls-6"><path class="cls-7" d="M335.86,228.17l173.68,2.72L313.45.37c3.73,33.76,22.91,211.64,22.4,222.44"/><path class="cls-8" d="M313.13,0h0V0Z"/></g><polygon class="cls-2" points="0 97.72 137 297.96 511.61 297.96 652.45 97.72 326.22 197.84 0 97.72"/><polygon class="cls-9" points="326.22 197.84 0 97.72 137 297.96 326.22 197.84"/><polygon class="cls-10" points="137 297.96 326.22 197.84 511.61 297.96 137 297.96"/><polygon class="cls-11" points="326.22 197.84 511.61 297.96 617.24 108.52 326.22 197.84"/></g></g></g></svg>