<svg xmlns="http://www.w3.org/2000/svg" xmlns:xlink="http://www.w3.org/1999/xlink" viewBox="0 0 244.02 123.03"><defs><style>.cls-1{isolation:isolate;}.cls-2{fill:#f16960;}.cls-3{opacity:0.76;mix-blend-mode:multiply;fill:url(#linear-gradient);}.cls-4{opacity:0.57;fill:url(#linear-gradient-2);}.cls-5{opacity:0.6;fill:url(#linear-gradient-3);}.cls-6{opacity:0.5;}.cls-7{fill:url(#linear-gradient-4);}.cls-8{fill:url(#linear-gradient-5);}.cls-9{fill:#2d4f6e;}.cls-10{opacity:0.46;fill:url(#linear-gradient-6);}.cls-11{opacity:0.67;fill:url(#linear-gradient-7);}.cls-12{opacity:0.35;fill:url(#linear-gradient-8);}</style><linearGradient id="linear-gradient" x1="143.38" y1="1486.39" x2="389.4" y2="1486.39" gradientTransform="matrix(0.99, -0.13, -0.08, 1.02, -23.6, -1404.63)" gradientUnits="userSpaceOnUse"><stop offset="0" stop-color="gray"/><stop offset="1" stop-color="#b2b2b2"/></linearGradient><linearGradient id="linear-gradient-2" x1="251.25" y1="1427.05" x2="237.93" y2="1475.6" gradientTransform="matrix(0.99, -0.13, -0.08, 1.02, -23.6, -1404.63)" gradientUnits="userSpaceOnUse"><stop offset="0" stop-color="gray"/><stop offset="0.7" stop-color="#818181"/><stop offset="1" stop-color="#b2b2b2"/></linearGradient><linearGradient id="linear-gradient-3" x1="267.54" y1="1507.35" x2="261.4" y2="1413.37" gradientTransform="matrix(0.99, -0.13, -0.08, 1.02, -23.6, -1404.63)" gradientUnits="userSpaceOnUse"><stop offset="0" stop-color="#4d4d4d"/><stop offset="1" stop-color="#333"/></linearGradient><linearGradient id="linear-gradient-4" x1="260.88" y1="1409.09" x2="295.72" y2="1483.33" gradientTransform="matrix(0.99, -0.13, -0.08, 1.02, -23.6, -1404.63)" gradientUnits="userSpaceOnUse"><stop offset="0" stop-color="#e5e5e5"/><stop offset="1" stop-color="#cbcbcb" stop-opacity="0"/></linearGradient><linearGradient id="linear-gradient-5" x1="260.31" y1="1409.36" x2="273.38" y2="1437.23" xlink:href="#linear-gradient-4"/><linearGradient id="linear-gradient-6" x1="144.61" y1="1443.72" x2="234.35" y2="1507.87" xlink:href="#linear-gradient"/><linearGradient id="linear-gradient-7" x1="206.26" y1="1531.88" x2="306.69" y2="1503.77" gradientTransform="matrix(0.99, -0.13, -0.08, 1.02, -23.6, -1404.63)" gradientUnits="userSpaceOnUse"><stop offset="0" stop-color="gray"/><stop offset="1" stop-color="#b2b2b2" stop-opacity="0"/></linearGradient><linearGradient id="linear-gradient-8" x1="299.88" y1="1506.35" x2="396.68" y2="1434.31" gradientTransform="matrix(0.99, -0.13, -0.08, 1.02, -23.6, -1404.63)" gradientUnits="userSpaceOnUse"><stop offset="0" stop-color="#fff"/><stop offset="0.38" stop-color="#b2b2b2" stop-opacity="0"/></linearGradient></defs><title>tplayer8</title><g class="cls-1"><g id="Слой_2" data-name="Слой 2"><g id="Map"><polygon class="cls-2" points="0 52.77 116.29 57.31 244.02 21.04 170.86 106.67 57.54 121.41 0 52.77"/><polygon class="cls-3" points="0 52.77 116.29 57.31 244.02 21.04 170.86 106.67 57.54 121.41 0 52.77"/><path class="cls-2" d="M49.52,94.77C52.58,91.82,120.13,0,120.13,0l66.33,79.15Z"/><path class="cls-4" d="M116.48,85.17S113.54,35.49,120.13,0L48,97.29l69.69-6.46.15-5.83Z"/><path class="cls-5" d="M120.13,0l.11.13c.35,12.79,2,80.19,1.51,84.36l-5.27.68S113.54,35.49,120.13,0Z"/><g class="cls-6"><path class="cls-7" d="M121.59,86.55l64.87-7.4L120.24.13c.35,12.79,2,80.19,1.51,84.36"/><polygon class="cls-8" points="120.13 0 120.13 0 120.13 0.01 120.13 0"/></g><polygon class="cls-2" points="0 52.77 45.06 123.03 185.17 104.81 244.02 21.04 118.92 75.37 0 52.77"/><path class="cls-9" d="M171.32,81.29l-2.26,4.85,1.12-.29c-.64,3-2.91,5.48-5.82,7.33l-6.19-17.07,2.76-1.54a1.32,1.32,0,0,0,1-.15,1.68,1.68,0,0,0,.84-1.9A1.14,1.14,0,0,0,161.1,72a1.91,1.91,0,0,0-.78.86l-2.76,1.54-.5-1.36a4.47,4.47,0,0,0,1.16-4.43c-.67-1.86-2.84-2.48-4.83-1.37A4.7,4.7,0,0,0,151,72.65a3,3,0,0,0,3.77,1.79l.46,1.28-3.06,1.7a1.34,1.34,0,0,0-1,.15,1.67,1.67,0,0,0-.84,1.91A1.14,1.14,0,0,0,152,80a1.85,1.85,0,0,0,.78-.86l3-1.7L162,94.46c-3.22,1.53-6.38,1.91-8.63.26l.93-.77-4.27-1.45.11,4.9,1.08-.9c3,2.57,8,3.23,12.47,1l1.15.92.22-1.68a17.47,17.47,0,0,0,7.58-11.57l1.25-.32Zm-18.55-9.62A2.42,2.42,0,0,1,154,68.91a1.65,1.65,0,0,1,2.48.7,2.42,2.42,0,0,1-1.22,2.77,1.64,1.64,0,0,1-2.48-.71"/><polygon class="cls-10" points="118.92 75.37 0 52.77 45.06 123.03 118.92 75.37"/><polygon class="cls-11" points="45.06 123.03 118.92 75.37 185.17 104.81 45.06 123.03"/><polygon class="cls-12" points="118.92 75.37 185.17 104.81 230.53 26.9 118.92 75.37"/></g></g></g></svg>