<svg xmlns="http://www.w3.org/2000/svg" xmlns:xlink="http://www.w3.org/1999/xlink" viewBox="0 0 284.25 142.75"><defs><style>.cls-1{isolation:isolate;}.cls-2{fill:#89cdc9;}.cls-3{opacity:0.76;mix-blend-mode:multiply;fill:url(#linear-gradient);}.cls-4{opacity:0.57;fill:url(#linear-gradient-2);}.cls-5{opacity:0.6;fill:url(#linear-gradient-3);}.cls-6{opacity:0.5;}.cls-7{fill:url(#linear-gradient-4);}.cls-8{fill:url(#linear-gradient-5);}.cls-9{fill:#4d4d4d;}.cls-10{opacity:0.46;fill:url(#linear-gradient-6);}.cls-11{opacity:0.67;fill:url(#linear-gradient-7);}.cls-12{opacity:0.35;fill:url(#linear-gradient-8);}</style><linearGradient id="linear-gradient" x1="132.53" y1="1379.38" x2="423.21" y2="1379.38" gradientTransform="matrix(0.98, -0.21, 0, 1.02, -132.7, -1262.58)" gradientUnits="userSpaceOnUse"><stop offset="0" stop-color="gray"/><stop offset="1" stop-color="#b2b2b2"/></linearGradient><linearGradient id="linear-gradient-2" x1="259.99" y1="1309.27" x2="244.24" y2="1366.63" gradientTransform="matrix(0.98, -0.21, 0, 1.02, -132.7, -1262.58)" gradientUnits="userSpaceOnUse"><stop offset="0" stop-color="gray"/><stop offset="0.7" stop-color="#818181"/><stop offset="1" stop-color="#b2b2b2"/></linearGradient><linearGradient id="linear-gradient-3" x1="279.24" y1="1404.14" x2="271.98" y2="1293.11" gradientTransform="matrix(0.98, -0.21, 0, 1.02, -132.7, -1262.58)" gradientUnits="userSpaceOnUse"><stop offset="0" stop-color="#4d4d4d"/><stop offset="1" stop-color="#333"/></linearGradient><linearGradient id="linear-gradient-4" x1="271.37" y1="1288.04" x2="312.53" y2="1375.76" gradientTransform="matrix(0.98, -0.21, 0, 1.02, -132.7, -1262.58)" gradientUnits="userSpaceOnUse"><stop offset="0" stop-color="#e5e5e5"/><stop offset="1" stop-color="#cbcbcb" stop-opacity="0"/></linearGradient><linearGradient id="linear-gradient-5" x1="270.68" y1="1288.36" x2="286.13" y2="1321.29" xlink:href="#linear-gradient-4"/><linearGradient id="linear-gradient-6" x1="136.17" y1="1325.9" x2="242.2" y2="1401.7" xlink:href="#linear-gradient"/><linearGradient id="linear-gradient-7" x1="209.09" y1="1432.49" x2="325.9" y2="1399.8" gradientTransform="matrix(0.98, -0.21, 0, 1.02, -132.7, -1262.58)" gradientUnits="userSpaceOnUse"><stop offset="0" stop-color="gray"/><stop offset="1" stop-color="#b2b2b2" stop-opacity="0"/></linearGradient><linearGradient id="linear-gradient-8" x1="317.44" y1="1402.97" x2="431.81" y2="1317.84" gradientTransform="matrix(0.98, -0.21, 0, 1.02, -132.7, -1262.58)" gradientUnits="userSpaceOnUse"><stop offset="0" stop-color="#fff"/><stop offset="0.38" stop-color="#b2b2b2" stop-opacity="0"/></linearGradient></defs><title>tplayer4</title><g class="cls-1"><g id="Слой_2" data-name="Слой 2"><g id="Map"><polygon class="cls-2" points="0 73.83 137.38 67.86 284.25 12.72 206.44 120.67 74.45 139.62 0 73.83"/><polygon class="cls-3" points="0 73.83 137.38 67.86 284.25 12.72 206.44 120.67 74.45 139.62 0 73.83"/><path class="cls-2" d="M62.39,118.47C65.71,114.7,136.32,0,136.32,0l85.81,86.74Z"/><path class="cls-4" d="M140.31,100.65S132,42.43,136.32,0L60.85,121.58l81.42-14.38-.38-6.89Z"/><path class="cls-5" d="M136.32,0l.14.14c1.66,15,10.2,94.22,10,99.19l-6.14,1.32S132,42.43,136.32,0Z"/><g class="cls-6"><path class="cls-7" d="M146.46,101.77l75.67-15L136.46.14c1.66,15,10.2,94.22,10,99.19"/><polygon class="cls-8" points="136.32 0 136.32 0 136.32 0.01 136.32 0"/></g><polygon class="cls-2" points="0 73.83 59.91 142.75 223.1 117.09 284.25 12.72 142.23 88.86 0 73.83"/><path class="cls-9" d="M171.48,104.07l-2.39,8.82a.84.84,0,0,0,.66,1.15l16.86,1.73a1.26,1.26,0,0,0,1.23-1l2.39-8.82s.77-2.69-1.43-3.5a6,6,0,0,1-3.51-2.82l-5.8-.59a9.19,9.19,0,0,1-4.81,2c-2.5.32-3.2,3-3.2,3Z"/><path class="cls-9" d="M212.88,81.9a.63.63,0,0,0,.13-.61,6.79,6.79,0,0,0-.41-.9,1.23,1.23,0,0,1,1.27-1.69l.69.19a.61.61,0,0,0,.65-.32,26.29,26.29,0,0,0,3.07-8.65c.08-.53-.49-.74-.86-.31-1.47,1.69-4.77,4.25-11.83,5.53-9.72,1.77-14.55,9-16.45,12.79-1.8,1.35-3.57,2.76-5.3,4.2a.69.69,0,0,0-.13.11l3.71.38c1-.76,1.92-1.51,2.88-2.24,11.72.34,18.58-3.72,22.58-8.48Z"/><path class="cls-9" d="M185.59,94.11l-6-.61a1.25,1.25,0,0,0-1.23,1l-.51,1.9a.84.84,0,0,0,.66,1.14l8.58.88a1.24,1.24,0,0,0,1.23-1l.51-1.9a.84.84,0,0,0-.66-1.14Z"/><polygon class="cls-10" points="142.23 88.86 0 73.83 59.91 142.75 142.23 88.86"/><polygon class="cls-11" points="59.91 142.75 142.23 88.86 223.1 117.09 59.91 142.75"/><polygon class="cls-12" points="142.23 88.86 223.1 117.09 268.93 20.93 142.23 88.86"/></g></g></g></svg>