<svg xmlns="http://www.w3.org/2000/svg" xmlns:xlink="http://www.w3.org/1999/xlink" viewBox="0 0 251.9 122.42"><defs><style>.cls-1{isolation:isolate;}.cls-2{fill:#f16960;}.cls-3{opacity:0.76;mix-blend-mode:multiply;fill:url(#linear-gradient);}.cls-4{opacity:0.57;fill:url(#linear-gradient-2);}.cls-5{opacity:0.6;fill:url(#linear-gradient-3);}.cls-6{opacity:0.5;}.cls-7{fill:url(#linear-gradient-4);}.cls-8{fill:url(#linear-gradient-5);}.cls-9{opacity:0.46;fill:url(#linear-gradient-6);}.cls-10{opacity:0.67;fill:url(#linear-gradient-7);}.cls-11{opacity:0.35;fill:url(#linear-gradient-8);}</style><linearGradient id="linear-gradient" x1="-590.36" y1="1114.18" x2="-337.7" y2="1114.18" gradientTransform="matrix(1, -0.08, -0.13, 1.01, 730.17, -1089.31)" gradientUnits="userSpaceOnUse"><stop offset="0" stop-color="gray"/><stop offset="1" stop-color="#b2b2b2"/></linearGradient><linearGradient id="linear-gradient-2" x1="-479.57" y1="1053.24" x2="-493.26" y2="1103.1" gradientTransform="matrix(1, -0.08, -0.13, 1.01, 730.17, -1089.31)" gradientUnits="userSpaceOnUse"><stop offset="0" stop-color="gray"/><stop offset="0.7" stop-color="#818181"/><stop offset="1" stop-color="#b2b2b2"/></linearGradient><linearGradient id="linear-gradient-3" x1="-462.84" y1="1135.7" x2="-469.15" y2="1039.19" gradientTransform="matrix(1, -0.08, -0.13, 1.01, 730.17, -1089.31)" gradientUnits="userSpaceOnUse"><stop offset="0" stop-color="#4d4d4d"/><stop offset="1" stop-color="#333"/></linearGradient><linearGradient id="linear-gradient-4" x1="-469.68" y1="1034.79" x2="-433.9" y2="1111.04" gradientTransform="matrix(1, -0.08, -0.13, 1.01, 730.17, -1089.31)" gradientUnits="userSpaceOnUse"><stop offset="0" stop-color="#e5e5e5"/><stop offset="1" stop-color="#cbcbcb" stop-opacity="0"/></linearGradient><linearGradient id="linear-gradient-5" x1="-470.27" y1="1035.07" x2="-456.84" y2="1063.69" xlink:href="#linear-gradient-4"/><linearGradient id="linear-gradient-6" x1="-589.09" y1="1070.35" x2="-496.93" y2="1136.24" xlink:href="#linear-gradient"/><linearGradient id="linear-gradient-7" x1="-525.78" y1="1160.9" x2="-422.64" y2="1132.03" gradientTransform="matrix(1, -0.08, -0.13, 1.01, 730.17, -1089.31)" gradientUnits="userSpaceOnUse"><stop offset="0" stop-color="gray"/><stop offset="1" stop-color="#b2b2b2" stop-opacity="0"/></linearGradient><linearGradient id="linear-gradient-8" x1="-429.63" y1="1134.68" x2="-330.22" y2="1060.69" gradientTransform="matrix(1, -0.08, -0.13, 1.01, 730.17, -1089.31)" gradientUnits="userSpaceOnUse"><stop offset="0" stop-color="#fff"/><stop offset="0.38" stop-color="#b2b2b2" stop-opacity="0"/></linearGradient></defs><title>tplayer3</title><g class="cls-1"><g id="Слой_2" data-name="Слой 2"><g id="Map"><polygon class="cls-2" points="0 48.09 119.06 58.6 251.91 27.81 172.55 111.97 55.57 121.39 0 48.09"/><polygon class="cls-3" points="0 48.09 119.06 58.6 251.91 27.81 172.55 111.97 55.57 121.39 0 48.09"/><path class="cls-2" d="M48.68,93.66C52,90.79,125.88,0,125.88,0l64.06,84.52Z"/><path class="cls-4" d="M117.86,87.19s-.53-51.12,8-87.19L47,96.17l71.81-3.12.45-6Z"/><path class="cls-5" d="M125.88,0l.1.14c-.28,13.13-1.94,82.35-2.69,86.61l-5.43.44S117.33,36.07,125.88,0Z"/><g class="cls-6"><path class="cls-7" d="M123,88.85l66.92-4.33L126,.14c-.28,13.13-1.94,82.35-2.69,86.61"/><polygon class="cls-8" points="125.88 0 125.88 0 125.88 0.01 125.88 0"/></g><polygon class="cls-2" points="0 48.09 42.69 122.42 187.32 110.78 251.91 27.81 120.85 77.25 0 48.09"/><polygon class="cls-9" points="120.85 77.25 0 48.09 42.69 122.42 120.85 77.25"/><polygon class="cls-10" points="42.69 122.42 120.85 77.25 187.32 110.78 42.69 122.42"/><polygon class="cls-11" points="120.85 77.25 187.32 110.78 237.76 33.15 120.85 77.25"/></g></g></g></svg>