<svg xmlns="http://www.w3.org/2000/svg" xmlns:xlink="http://www.w3.org/1999/xlink" viewBox="0 0 203.94 97.55"><defs><style>.cls-1{isolation:isolate;}.cls-2{fill:#89cdc9;}.cls-3{opacity:0.76;mix-blend-mode:multiply;fill:url(#linear-gradient);}.cls-4{opacity:0.57;fill:url(#linear-gradient-2);}.cls-5{opacity:0.6;fill:url(#linear-gradient-3);}.cls-6{opacity:0.5;}.cls-7{fill:url(#linear-gradient-4);}.cls-8{fill:url(#linear-gradient-5);}.cls-9{opacity:0.46;fill:url(#linear-gradient-6);}.cls-10{opacity:0.67;fill:url(#linear-gradient-7);}.cls-11{opacity:0.35;fill:url(#linear-gradient-8);}</style><linearGradient id="linear-gradient" x1="-704.07" y1="1029.13" x2="-499.82" y2="1029.13" gradientTransform="matrix(1, -0.06, -0.15, 1.01, 855.39, -1013.51)" gradientUnits="userSpaceOnUse"><stop offset="0" stop-color="gray"/><stop offset="1" stop-color="#b2b2b2"/></linearGradient><linearGradient id="linear-gradient-2" x1="-614.5" y1="979.86" x2="-625.57" y2="1020.17" gradientTransform="matrix(1, -0.06, -0.15, 1.01, 855.39, -1013.51)" gradientUnits="userSpaceOnUse"><stop offset="0" stop-color="gray"/><stop offset="0.7" stop-color="#818181"/><stop offset="1" stop-color="#b2b2b2"/></linearGradient><linearGradient id="linear-gradient-3" x1="-600.98" y1="1046.52" x2="-606.08" y2="968.5" gradientTransform="matrix(1, -0.06, -0.15, 1.01, 855.39, -1013.51)" gradientUnits="userSpaceOnUse"><stop offset="0" stop-color="#4d4d4d"/><stop offset="1" stop-color="#333"/></linearGradient><linearGradient id="linear-gradient-4" x1="-606.51" y1="964.95" x2="-577.59" y2="1026.59" gradientTransform="matrix(1, -0.06, -0.15, 1.01, 855.39, -1013.51)" gradientUnits="userSpaceOnUse"><stop offset="0" stop-color="#e5e5e5"/><stop offset="1" stop-color="#cbcbcb" stop-opacity="0"/></linearGradient><linearGradient id="linear-gradient-5" x1="-606.99" y1="965.17" x2="-596.13" y2="988.31" xlink:href="#linear-gradient-4"/><linearGradient id="linear-gradient-6" x1="-703.04" y1="993.7" x2="-628.54" y2="1046.96" xlink:href="#linear-gradient"/><linearGradient id="linear-gradient-7" x1="-651.86" y1="1066.89" x2="-568.48" y2="1043.55" gradientTransform="matrix(1, -0.06, -0.15, 1.01, 855.39, -1013.51)" gradientUnits="userSpaceOnUse"><stop offset="0" stop-color="gray"/><stop offset="1" stop-color="#b2b2b2" stop-opacity="0"/></linearGradient><linearGradient id="linear-gradient-8" x1="-574.14" y1="1045.7" x2="-493.77" y2="985.88" gradientTransform="matrix(1, -0.06, -0.15, 1.01, 855.39, -1013.51)" gradientUnits="userSpaceOnUse"><stop offset="0" stop-color="#fff"/><stop offset="0.38" stop-color="#b2b2b2" stop-opacity="0"/></linearGradient></defs><title>tplayer2</title><g class="cls-1"><g id="Слой_2" data-name="Слой 2"><g id="Map"><polygon class="cls-2" points="0 36.75 96.05 47.25 203.94 24.6 138.39 91.28 43.68 96.92 0 36.75"/><polygon class="cls-3" points="0 36.75 96.05 47.25 203.94 24.6 138.39 91.28 43.68 96.92 0 36.75"/><path class="cls-2" d="M38.58,74.4c2.71-2.26,64-74.4,64-74.4L152.9,69.39Z"/><path class="cls-4" d="M94.6,70.33S95,29,102.55,0L37.17,76.4l58.09-1.31.46-4.83Z"/><path class="cls-5" d="M102.55,0l.08.11c-.45,10.61-3,66.53-3.63,70l-4.4.26S95,29,102.55,0Z"/><g class="cls-6"><path class="cls-7" d="M98.74,71.77l54.16-2.38L102.63.11c-.45,10.61-3,66.53-3.63,70"/><polygon class="cls-8" points="102.55 0 102.55 0 102.55 0.01 102.55 0"/></g><polygon class="cls-2" points="0 36.75 33.25 97.55 150.34 90.57 203.94 24.6 97.18 62.35 0 36.75"/><polygon class="cls-9" points="97.18 62.35 0 36.75 33.25 97.55 97.18 62.35"/><polygon class="cls-10" points="33.25 97.55 97.18 62.35 150.34 90.57 33.25 97.55"/><polygon class="cls-11" points="97.18 62.35 150.34 90.57 192.42 28.67 97.18 62.35"/></g></g></g></svg>