<svg xmlns="http://www.w3.org/2000/svg" xmlns:xlink="http://www.w3.org/1999/xlink" viewBox="0 0 241.19 129.12"><defs><style>.cls-1{isolation:isolate;}.cls-2{fill:#ffc94a;}.cls-3{opacity:0.76;mix-blend-mode:multiply;fill:url(#linear-gradient);}.cls-4{opacity:0.57;fill:url(#linear-gradient-2);}.cls-5{opacity:0.6;fill:url(#linear-gradient-3);}.cls-6{opacity:0.5;}.cls-7{fill:url(#linear-gradient-4);}.cls-8{fill:url(#linear-gradient-5);}.cls-9{opacity:0.46;fill:url(#linear-gradient-6);}.cls-10{opacity:0.67;fill:url(#linear-gradient-7);}.cls-11{opacity:0.35;fill:url(#linear-gradient-8);}</style><linearGradient id="linear-gradient" x1="139.64" y1="1429.06" x2="386.28" y2="1429.06" gradientTransform="matrix(0.98, -0.21, 0, 1.02, -139.78, -1329.96)" gradientUnits="userSpaceOnUse"><stop offset="0" stop-color="gray"/><stop offset="1" stop-color="#b2b2b2"/></linearGradient><linearGradient id="linear-gradient-2" x1="247.79" y1="1369.57" x2="234.43" y2="1418.25" gradientTransform="matrix(0.98, -0.21, 0, 1.02, -139.78, -1329.96)" gradientUnits="userSpaceOnUse"><stop offset="0" stop-color="gray"/><stop offset="0.7" stop-color="#818181"/><stop offset="1" stop-color="#b2b2b2"/></linearGradient><linearGradient id="linear-gradient-3" x1="264.12" y1="1450.07" x2="257.96" y2="1355.86" gradientTransform="matrix(0.98, -0.21, 0, 1.02, -139.78, -1329.96)" gradientUnits="userSpaceOnUse"><stop offset="0" stop-color="#4d4d4d"/><stop offset="1" stop-color="#333"/></linearGradient><linearGradient id="linear-gradient-4" x1="257.44" y1="1351.56" x2="292.37" y2="1425.99" gradientTransform="matrix(0.98, -0.21, 0, 1.02, -139.78, -1329.96)" gradientUnits="userSpaceOnUse"><stop offset="0" stop-color="#e5e5e5"/><stop offset="1" stop-color="#cbcbcb"/></linearGradient><linearGradient id="linear-gradient-5" x1="256.86" y1="1351.83" x2="269.97" y2="1379.77" xlink:href="#linear-gradient-4"/><linearGradient id="linear-gradient-6" x1="140.88" y1="1386.28" x2="230.84" y2="1450.59" xlink:href="#linear-gradient"/><linearGradient id="linear-gradient-7" x1="202.68" y1="1474.66" x2="303.36" y2="1446.48" gradientTransform="matrix(0.98, -0.21, 0, 1.02, -139.78, -1329.96)" gradientUnits="userSpaceOnUse"><stop offset="0" stop-color="gray"/><stop offset="1" stop-color="#b2b2b2" stop-opacity="0"/></linearGradient><linearGradient id="linear-gradient-8" x1="296.53" y1="1449.07" x2="393.58" y2="1376.84" gradientTransform="matrix(0.98, -0.21, 0, 1.02, -139.78, -1329.96)" gradientUnits="userSpaceOnUse"><stop offset="0" stop-color="#fff"/><stop offset="0.38" stop-color="#b2b2b2" stop-opacity="0"/></linearGradient></defs><title>tplayer5</title><g class="cls-1"><g id="Слой_2" data-name="Слой 2"><g id="Map"><polygon class="cls-2" points="0 62.64 116.57 57.58 241.19 10.79 175.16 102.39 63.16 126.47 0 62.64"/><polygon class="cls-3" points="0 62.64 116.57 57.58 241.19 10.79 175.16 102.39 63.16 126.47 0 62.64"/><path class="cls-2" d="M52.94,100.52C55.76,97.32,115.67,0,115.67,0l72.81,73.6Z"/><path class="cls-4" d="M119.06,85.4S112,36,115.67,0l-64,103.16L120.72,91l-.33-5.85Z"/><path class="cls-5" d="M115.67,0l.11.12c1.41,12.75,8.66,79.95,8.48,84.16l-5.2,1.12S112,36,115.67,0Z"/><g class="cls-6"><path class="cls-7" d="M124.27,86.35,188.48,73.6,115.79.12c1.41,12.75,8.65,79.95,8.47,84.16"/><polygon class="cls-8" points="115.67 0 115.67 0 115.67 0.01 115.67 0"/></g><polygon class="cls-2" points="0 62.64 50.82 129.12 189.3 99.35 241.19 10.79 120.68 75.4 0 62.64"/><polygon class="cls-9" points="120.68 75.4 0 62.64 50.82 129.12 120.68 75.4"/><polygon class="cls-10" points="50.82 129.12 120.68 75.4 189.3 99.35 50.82 129.12"/><polygon class="cls-11" points="120.68 75.4 189.3 99.35 228.18 17.76 120.68 75.4"/></g></g></g></svg>