<svg xmlns="http://www.w3.org/2000/svg" xmlns:xlink="http://www.w3.org/1999/xlink" viewBox="0 0 217.22 102.42"><defs><style>.cls-1{isolation:isolate;}.cls-2{fill:#ffc94a;}.cls-3{opacity:0.76;mix-blend-mode:multiply;fill:url(#linear-gradient);}.cls-4{opacity:0.57;fill:url(#linear-gradient-2);}.cls-5{opacity:0.6;fill:url(#linear-gradient-3);}.cls-6{opacity:0.5;}.cls-7{fill:url(#linear-gradient-4);}.cls-8{fill:url(#linear-gradient-5);}.cls-9{fill:#ff004a;}.cls-10{fill:#d40023;}.cls-11{opacity:0.46;fill:url(#linear-gradient-6);}.cls-12{opacity:0.67;fill:url(#linear-gradient-7);}.cls-13{opacity:0.35;fill:url(#linear-gradient-8);}</style><linearGradient id="linear-gradient" x1="278.65" y1="1175.04" x2="496" y2="1175.04" gradientTransform="matrix(1, -0.04, -0.17, 1.01, -82.74, -1101.9)" gradientUnits="userSpaceOnUse"><stop offset="0" stop-color="gray"/><stop offset="1" stop-color="#b2b2b2"/></linearGradient><linearGradient id="linear-gradient-2" x1="373.96" y1="1122.62" x2="362.18" y2="1165.51" gradientTransform="matrix(1, -0.04, -0.17, 1.01, -82.74, -1101.9)" gradientUnits="userSpaceOnUse"><stop offset="0" stop-color="gray"/><stop offset="0.7" stop-color="#818181"/><stop offset="1" stop-color="#b2b2b2"/></linearGradient><linearGradient id="linear-gradient-3" x1="388.35" y1="1193.56" x2="382.92" y2="1110.53" gradientTransform="matrix(1, -0.04, -0.17, 1.01, -82.74, -1101.9)" gradientUnits="userSpaceOnUse"><stop offset="0" stop-color="#4d4d4d"/><stop offset="1" stop-color="#333"/></linearGradient><linearGradient id="linear-gradient-4" x1="382.47" y1="1106.75" x2="413.24" y2="1172.34" gradientTransform="matrix(1, -0.04, -0.17, 1.01, -82.74, -1101.9)" gradientUnits="userSpaceOnUse"><stop offset="0" stop-color="#e5e5e5"/><stop offset="1" stop-color="#cbcbcb"/></linearGradient><linearGradient id="linear-gradient-5" x1="381.96" y1="1106.99" x2="393.51" y2="1131.61" xlink:href="#linear-gradient-4"/><linearGradient id="linear-gradient-6" x1="279.74" y1="1137.34" x2="359.03" y2="1194.02" xlink:href="#linear-gradient"/><linearGradient id="linear-gradient-7" x1="334.21" y1="1215.23" x2="422.93" y2="1190.4" gradientTransform="matrix(1, -0.04, -0.17, 1.01, -82.74, -1101.9)" gradientUnits="userSpaceOnUse"><stop offset="0" stop-color="gray"/><stop offset="1" stop-color="#b2b2b2" stop-opacity="0"/></linearGradient><linearGradient id="linear-gradient-8" x1="416.91" y1="1192.68" x2="502.44" y2="1129.03" gradientTransform="matrix(1, -0.04, -0.17, 1.01, -82.74, -1101.9)" gradientUnits="userSpaceOnUse"><stop offset="0" stop-color="#fff"/><stop offset="0.38" stop-color="#b2b2b2" stop-opacity="0"/></linearGradient></defs><title>Yellow_Ship_Smal_1</title><g class="cls-1"><g id="Layer_2" data-name="Layer 2"><g id="Map"><polygon class="cls-2" points="0 37.07 101.99 50.14 217.22 28.17 146.16 97.83 45.29 101.96 0 37.07"/><polygon class="cls-3" points="0 37.07 101.99 50.14 217.22 28.17 146.16 97.83 45.29 101.96 0 37.07"/><path class="cls-2" d="M40.3,77.9C43.23,75.54,109.83,0,109.83,0L162,74.83Z"/><path class="cls-4" d="M100,74.67s1.28-44,9.85-74.67L38.77,80l61.82-.25.59-5.12Z"/><path class="cls-5" d="M109.83,0l.09.12c-.69,11.28-4.46,70.73-5.25,74.36l-4.69.19S101.26,30.71,109.83,0Z"/><g class="cls-6"><path class="cls-7" d="M104.37,76.28,162,74.83,109.92.12c-.69,11.28-4.46,70.73-5.25,74.36"/><polygon class="cls-8" points="109.83 0 109.83 0 109.83 0.01 109.83 0"/></g><polygon class="cls-2" points="0 37.07 34.18 102.42 158.9 97.31 217.22 28.17 102.89 66.23 0 37.07"/><path class="cls-9" d="M151.77,66c-1.33-4.1-5.69-5.71-10.15-3.73l-.4.18A12.2,12.2,0,0,0,136,68.25a8.31,8.31,0,0,0-6.84-.56l-.55.23h0c-4.38,1.94-7.08,6.62-6.28,10.89.75,4,4.38,6.24,7,7.56A40.87,40.87,0,0,0,141,89.71l.44.06.33-.39a64.83,64.83,0,0,0,7.8-11.81C151.12,74.43,153,69.82,151.77,66Z"/><path class="cls-10" d="M43.48,66.16c.19.06.23.22.1.48a1,1,0,0,1-.27.32.47.47,0,0,1-.36.09c-.75-.08-1.28-.14-1.61-.16l-.14.2A6.54,6.54,0,0,1,39,69.23a2.55,2.55,0,0,1-2.1.23,1.18,1.18,0,0,1-.84-.74,1.43,1.43,0,0,1,.16-1.13,2.87,2.87,0,0,1,1.61-1.31,7.93,7.93,0,0,1,2.92-.41l.78-1.13.51-.73a4.64,4.64,0,0,1-1.66,1,2.43,2.43,0,0,1-1.53,0,1.06,1.06,0,0,1-.79-.82,2,2,0,0,1,.28-1.31,2.71,2.71,0,0,1,.31-.49c.11-.15.26-.32.43-.51s.37-.43.48-.58a4.4,4.4,0,0,0,.34-.53c.15-.28.12-.46-.07-.52a.93.93,0,0,0-.5,0,4.14,4.14,0,0,0-.7.26.46.46,0,0,1-.34.06.22.22,0,0,1-.15-.17.46.46,0,0,1,.07-.29,1.25,1.25,0,0,1,.55-.54,3,3,0,0,1,1-.32,2.13,2.13,0,0,1,1,.08.86.86,0,0,1,.6.6,1.52,1.52,0,0,1-.22,1,4.11,4.11,0,0,1-.39.62c-.14.19-.32.4-.52.63s-.33.39-.42.51a3,3,0,0,0-.24.38,1,1,0,0,0-.16.61c0,.14.16.25.39.33a1.6,1.6,0,0,0,1.12-.16,5.59,5.59,0,0,0,1.48-1,8.35,8.35,0,0,0,1.43-1.66,1.49,1.49,0,0,1,.48-.49.66.66,0,0,1,.5,0q.57.19.24.81l-.09.17c-.36.52-.77,1.09-1.22,1.72-.57.8-1.16,1.62-1.75,2.47.38,0,.83.1,1.35.18Zm-3.39.68a5.59,5.59,0,0,0-1.86.23,1.59,1.59,0,0,0-1,.75.67.67,0,0,0-.07.47.41.41,0,0,0,.3.32,1.36,1.36,0,0,0,1.16-.22A5.28,5.28,0,0,0,40,66.91Z"/><path class="cls-10" d="M47.84,68.44a.71.71,0,0,1-.09.31,1.24,1.24,0,0,1-.44.49,3.51,3.51,0,0,1-1.4.52,2.77,2.77,0,0,1-1.3-.09,1.39,1.39,0,0,1-.88-.68,1.17,1.17,0,0,1,.13-1,2.21,2.21,0,0,1,.91-.93,7.86,7.86,0,0,1,1.54-.6,1,1,0,0,1-.4-.06.67.67,0,0,1-.37-.31,1,1,0,0,1-.06-.55,7.28,7.28,0,0,1-1.33,1.37,10.58,10.58,0,0,1-1,.64c-.28.15-.59.31-.94.47a.51.51,0,0,1-.39,0,.23.23,0,0,1-.15-.17.41.41,0,0,1,.05-.28.65.65,0,0,1,.28-.29l.35-.2a6.49,6.49,0,0,0,1-.64,9,9,0,0,0,.72-.61,12.65,12.65,0,0,0,.88-.94.86.86,0,0,1,1-.36.45.45,0,0,1,.32.53.6.6,0,0,0,.06.39.62.62,0,0,0,.36.25,1.36,1.36,0,0,0,.29.06h.46a1.13,1.13,0,0,1,.39,0,.24.24,0,0,1,.17.17.43.43,0,0,1-.06.29,1.1,1.1,0,0,1-.63.55,12,12,0,0,0-1.65.67,1.61,1.61,0,0,0-.72.66c-.16.3-.07.5.27.62a2.06,2.06,0,0,0,1,0,3.45,3.45,0,0,0,1.21-.43.3.3,0,0,1,.28,0A.17.17,0,0,1,47.84,68.44Z"/><path class="cls-10" d="M46.66,69.85a1.86,1.86,0,0,1,.25-1,10.51,10.51,0,0,1,.71-1.18,11.32,11.32,0,0,1,.88-1.08,1.14,1.14,0,0,1,.42-.3.82.82,0,0,1,.52,0,.39.39,0,0,1,.22.14.27.27,0,0,1,0,.21s-.14.2-.34.45l-.44.54a11.07,11.07,0,0,0-.8,1.18.6.6,0,0,0-.1.27.12.12,0,0,0,.09.12c.08,0,.23,0,.44-.16a5.74,5.74,0,0,0,.81-.66,15.45,15.45,0,0,0,1.09-1.19.86.86,0,0,1,.39-.3.67.67,0,0,1,.46,0,.39.39,0,0,1,.23.14s0,.12,0,.2a9.77,9.77,0,0,1-.83,1.14,13.31,13.31,0,0,0-1,1.31.46.46,0,0,0-.07.28.16.16,0,0,0,.12.15.74.74,0,0,0,.49-.08,8.82,8.82,0,0,0,1-.49.34.34,0,0,1,.28-.05.15.15,0,0,1,.11.16.51.51,0,0,1-.09.31,1.07,1.07,0,0,1-.44.49,4.72,4.72,0,0,1-1.14.51,1.77,1.77,0,0,1-1.07,0,.53.53,0,0,1-.39-.53,2.14,2.14,0,0,1,.29-1,2.83,2.83,0,0,1-.89.78,1,1,0,0,1-.76.12A.62.62,0,0,1,46.66,69.85Z"/><path class="cls-10" d="M50.29,71.12A4.4,4.4,0,0,1,50.76,70a9.7,9.7,0,0,1,1.43-2.06.87.87,0,0,1,.44-.3.88.88,0,0,1,.52,0c.11,0,.18.07.2.12s0,.11,0,.19a5.31,5.31,0,0,1-.45.59q-.27.31-.45.57c-.12.16-.26.36-.42.61a7,7,0,0,1,1.13-1,3.48,3.48,0,0,1,1-.49,1.19,1.19,0,0,1,.72,0,.44.44,0,0,1,.33.28.77.77,0,0,1-.11.47,8.08,8.08,0,0,1-.69,1l-.34.44a6,6,0,0,1,1.72-1.26A1.68,1.68,0,0,1,56.94,69c.35.12.42.38.22.76a9.83,9.83,0,0,1-.82,1.18,9.64,9.64,0,0,0-.69,1c-.12.24-.1.38.05.44a.79.79,0,0,0,.5-.09,8.82,8.82,0,0,0,1-.49.37.37,0,0,1,.28,0,.17.17,0,0,1,.11.17.74.74,0,0,1-.09.31,1.19,1.19,0,0,1-.44.49,5.42,5.42,0,0,1-1.15.51,1.74,1.74,0,0,1-1.06,0,.65.65,0,0,1-.48-.48,1.24,1.24,0,0,1,.18-.82,7.31,7.31,0,0,1,.57-.84,7,7,0,0,0,.51-.73c0-.09,0-.15,0-.17s-.22,0-.45.19a5.56,5.56,0,0,0-.79.65,7.43,7.43,0,0,0-.85.91,2.4,2.4,0,0,1-.5.49.58.58,0,0,1-.45,0,.37.37,0,0,1-.25-.42,1.59,1.59,0,0,1,.22-.72,10.87,10.87,0,0,1,.58-.94c.24-.36.39-.6.45-.71s0-.15,0-.17-.24,0-.47.21a5.46,5.46,0,0,0-.79.68q-.42.44-.78.87a2,2,0,0,1-.5.49.55.55,0,0,1-.44,0C50.33,71.55,50.25,71.39,50.29,71.12Z"/><path class="cls-10" d="M61.71,73.26a.56.56,0,0,1-.09.32,1.24,1.24,0,0,1-.43.49,6.32,6.32,0,0,1-1.17.5,1.68,1.68,0,0,1-1,0,.77.77,0,0,1-.47-.41,2,2,0,0,1-.95-.08,1.3,1.3,0,0,1-.91-.86,1.72,1.72,0,0,1,.2-1.33,7.2,7.2,0,0,1,.6-1A9.56,9.56,0,0,1,58.2,70a.87.87,0,0,1,.44-.3,1,1,0,0,1,.54,0c.24.09.32.2.25.34s-.18.25-.45.59l-.2.24-.39.49a2.56,2.56,0,0,1,.73-.21,1.61,1.61,0,0,1,.7.06.86.86,0,0,1,.59.62,1.43,1.43,0,0,1-.18,1,2.63,2.63,0,0,1-.62.76.23.23,0,0,0,.11,0,.93.93,0,0,0,.61,0,7.28,7.28,0,0,0,1-.49.34.34,0,0,1,.28-.05A.16.16,0,0,1,61.71,73.26Zm-3-.13a1,1,0,0,0,.45-.48c.17-.31.1-.52-.21-.62a.83.83,0,0,0-.56,0,1.87,1.87,0,0,0-.53.26,1,1,0,0,0-.09.54.48.48,0,0,0,.34.32A.83.83,0,0,0,58.69,73.13Z"/><path class="cls-10" d="M60.69,74.58a1.94,1.94,0,0,1,.24-1.44A3.7,3.7,0,0,1,61.84,72a2.93,2.93,0,0,1,1.1-.6,1.85,1.85,0,0,1,1,0,.8.8,0,0,1,.54.53,1.19,1.19,0,0,1-.14.82,1.52,1.52,0,0,1-.48.57.54.54,0,0,1-.52.12.32.32,0,0,1-.21-.16.31.31,0,0,1,0-.26.77.77,0,0,1,.09-.13l.08-.11a1.13,1.13,0,0,0,.17-.23.3.3,0,0,0,0-.19.2.2,0,0,0-.12-.12.6.6,0,0,0-.44.06,2,2,0,0,0-.51.4,2.46,2.46,0,0,0-.45.64c-.36.69-.27,1.12.27,1.31a1.62,1.62,0,0,0,.85,0,3.89,3.89,0,0,0,1.13-.46.34.34,0,0,1,.28-.05.17.17,0,0,1,.11.17.74.74,0,0,1-.09.31,1.24,1.24,0,0,1-.44.49,3.56,3.56,0,0,1-1.32.47,2.42,2.42,0,0,1-1.16-.08A1.39,1.39,0,0,1,60.69,74.58Z"/><path class="cls-10" d="M69.06,75.82a.65.65,0,0,1-.1.31,1.11,1.11,0,0,1-.43.49,5.38,5.38,0,0,1-1.23.52,1.52,1.52,0,0,1-.9,0,.52.52,0,0,1-.38-.43,1.38,1.38,0,0,1,.21-.8,5.09,5.09,0,0,1,.34-.53h0c-1,.85-1.94,1.15-2.72.88a1,1,0,0,1-.64-.6,1.19,1.19,0,0,1,.13-1,1.67,1.67,0,0,1,.56-.65.75.75,0,0,1,.66-.08c.2.06.25.18.16.35a.49.49,0,0,1-.08.12l-.13.21a.91.91,0,0,0-.13.5.29.29,0,0,0,.21.29,1.1,1.1,0,0,0,.6,0,3.48,3.48,0,0,0,.76-.31l-.1,0a.85.85,0,0,1-.6-.6,1.42,1.42,0,0,1,.19-1,1.77,1.77,0,0,1,.87-.88,1.47,1.47,0,0,1,1.15,0,2.68,2.68,0,0,1,.82.46.5.5,0,0,1,.44,0,.34.34,0,0,1,.21.17.28.28,0,0,1,0,.26c-.09.14-.28.38-.56.73s-.51.65-.69.9a6.19,6.19,0,0,0-.46.73.63.63,0,0,0-.08.28.2.2,0,0,0,.13.16.78.78,0,0,0,.48-.08,7.62,7.62,0,0,0,1-.5.35.35,0,0,1,.29,0A.18.18,0,0,1,69.06,75.82Zm-1.33-2.17a1.53,1.53,0,0,0-.47-.27.78.78,0,0,0-.58,0,.85.85,0,0,0-.43.41.62.62,0,0,0-.07.47.42.42,0,0,0,.29.29l.24.07A7.69,7.69,0,0,0,67.73,73.65Z"/><path class="cls-10" d="M69.93,78a4.29,4.29,0,0,1,.46-1.17,10.07,10.07,0,0,1,1.44-2.07.94.94,0,0,1,.43-.29,1,1,0,0,1,.53,0,.36.36,0,0,1,.2.13s0,.1,0,.19a5.31,5.31,0,0,1-.45.59c-.18.21-.33.4-.45.56a6.57,6.57,0,0,0-.42.62,7,7,0,0,1,1.13-1,3.23,3.23,0,0,1,1-.49,1.19,1.19,0,0,1,.72,0c.19.06.29.15.32.27a.72.72,0,0,1-.1.48,8.23,8.23,0,0,1-.69,1c-.16.2-.27.35-.34.45A6.27,6.27,0,0,1,75.4,76a1.72,1.72,0,0,1,1.18-.17c.34.12.42.37.22.75A8.47,8.47,0,0,1,76,77.71c-.36.48-.59.8-.68,1s-.1.38,0,.43a.77.77,0,0,0,.5-.08,9.94,9.94,0,0,0,1-.49.36.36,0,0,1,.29,0,.18.18,0,0,1,.11.16.78.78,0,0,1-.09.32,1.25,1.25,0,0,1-.44.49,4.9,4.9,0,0,1-1.15.5,1.67,1.67,0,0,1-1.06,0,.68.68,0,0,1-.49-.48,1.26,1.26,0,0,1,.19-.82,5.58,5.58,0,0,1,.57-.84c.26-.35.43-.59.51-.73s0-.15,0-.17-.22,0-.45.19a6,6,0,0,0-.8.64,9.15,9.15,0,0,0-.84.91,2,2,0,0,1-.5.49.58.58,0,0,1-.45,0,.4.4,0,0,1-.26-.42,1.84,1.84,0,0,1,.22-.72c.12-.22.32-.54.59-.94s.39-.6.45-.72,0-.15,0-.17-.24,0-.48.21a7.16,7.16,0,0,0-.78.69,8.87,8.87,0,0,0-.78.87,1.91,1.91,0,0,1-.5.48.52.52,0,0,1-.44,0C70,78.38,69.89,78.21,69.93,78Z"/><path class="cls-10" d="M81.25,79.19a.7.7,0,0,1-.1.31c-.15.28-.31.43-.49.42a3.73,3.73,0,0,1-1.18-.16,3.1,3.1,0,0,1-1.22,1,1.75,1.75,0,0,1-1.26.09,1.25,1.25,0,0,1-.69-.55,1.44,1.44,0,0,1-.16-.86,2.32,2.32,0,0,1,.3-1,3.72,3.72,0,0,1,.85-1.11,2.63,2.63,0,0,1,1.08-.59,1.67,1.67,0,0,1,1.06,0,1.07,1.07,0,0,1,.75.8A2.13,2.13,0,0,1,80,78.86,4.79,4.79,0,0,0,81,79l.13,0A.16.16,0,0,1,81.25,79.19Zm-3.13.65a1.77,1.77,0,0,0,.6-.57,1.16,1.16,0,0,1-.13-.62,1.67,1.67,0,0,1,.2-.67A2.61,2.61,0,0,1,79,77.7h0a.76.76,0,0,0-.71.15,2.34,2.34,0,0,0-.71.88,1.49,1.49,0,0,0-.22.8.43.43,0,0,0,.27.39A.69.69,0,0,0,78.12,79.84Z"/><path class="cls-10" d="M85.15,81.41a.71.71,0,0,1-.09.31,1.22,1.22,0,0,1-.44.5c-.3.16-.55.29-.75.38a2.48,2.48,0,0,1-.67.2,1.64,1.64,0,0,1-.73-.07.63.63,0,0,1-.47-.65,3.36,3.36,0,0,1,.45-1.31q.21-.4.45-.78h0a7.61,7.61,0,0,1-1.73,1.53,1.7,1.7,0,0,1-1.41.26.68.68,0,0,1-.48-.55,1.5,1.5,0,0,1,.2-.9,1.65,1.65,0,0,1,.56-.65.72.72,0,0,1,.66-.09.27.27,0,0,1,.2.15.23.23,0,0,1,0,.21,6.12,6.12,0,0,0-.37.56c-.11.21-.12.34,0,.37s.13,0,.25-.07a5.71,5.71,0,0,0,.67-.52c.26-.22.54-.46.84-.74l.78-.75a1.51,1.51,0,0,1,.56-.4.91.91,0,0,1,.56,0,.6.6,0,0,1,.38.29.56.56,0,0,1-.08.48l-.36.65c-.28.48-.47.83-.58,1-.33.62-.37,1-.14,1a.44.44,0,0,0,.36-.05,6.43,6.43,0,0,0,.73-.39l.34-.19a.33.33,0,0,1,.28,0A.15.15,0,0,1,85.15,81.41Z"/><path class="cls-10" d="M89.41,82.89a.65.65,0,0,1-.09.32,1.18,1.18,0,0,1-.44.49,6.54,6.54,0,0,1-1.16.5,1.71,1.71,0,0,1-1,0,.81.81,0,0,1-.47-.42,1.93,1.93,0,0,1-1-.07,1.31,1.31,0,0,1-.91-.86,1.73,1.73,0,0,1,.21-1.33,8.33,8.33,0,0,1,.59-1c.22-.3.47-.61.76-.94a.79.79,0,0,1,1-.24c.25.09.33.2.26.34a6.42,6.42,0,0,1-.46.59l-.19.24-.39.49a2.29,2.29,0,0,1,.72-.21,1.6,1.6,0,0,1,.7.06.85.85,0,0,1,.6.62,1.5,1.5,0,0,1-.19,1,2.34,2.34,0,0,1-.62.76l.11,0a1,1,0,0,0,.62,0,7.91,7.91,0,0,0,1-.49.34.34,0,0,1,.28,0A.16.16,0,0,1,89.41,82.89Zm-3-.13a1,1,0,0,0,.46-.48c.16-.31.09-.52-.21-.62a.83.83,0,0,0-.56,0,1.75,1.75,0,0,0-.53.26,1,1,0,0,0-.09.54.45.45,0,0,0,.33.32A.82.82,0,0,0,86.38,82.76Z"/><path class="cls-10" d="M88.15,84.28a4.14,4.14,0,0,1,.46-1.16,9.81,9.81,0,0,1,1.44-2.07.87.87,0,0,1,.43-.29.9.9,0,0,1,.53,0,.43.43,0,0,1,.2.12.19.19,0,0,1,0,.19,5.31,5.31,0,0,1-.45.59,3.22,3.22,0,0,0-.22.26c-.11.13-.23.29-.37.48a7,7,0,0,0-.39.63,5.84,5.84,0,0,1,1.65-1.51,1.64,1.64,0,0,1,1.35-.15.68.68,0,0,1,.5.51,1.19,1.19,0,0,1-.14.82,1.52,1.52,0,0,1-.48.57.54.54,0,0,1-.52.12.39.39,0,0,1-.21-.16.31.31,0,0,1,0-.26.77.77,0,0,1,.09-.13l.08-.11a1.13,1.13,0,0,0,.17-.23c.08-.16,0-.26-.09-.31a.52.52,0,0,0-.4.07,1.79,1.79,0,0,0-.5.4,2.78,2.78,0,0,0-.44.62,1.42,1.42,0,0,0-.2.83.6.6,0,0,0,.43.49.92.92,0,0,0,.65,0,9.35,9.35,0,0,0,1-.53.37.37,0,0,1,.28,0,.17.17,0,0,1,.11.17.74.74,0,0,1-.09.31,1.19,1.19,0,0,1-.44.49,6.14,6.14,0,0,1-1.13.52,1.57,1.57,0,0,1-1,0,1.23,1.23,0,0,1-.59-.42,1.6,1.6,0,0,1-.28-.61,1.4,1.4,0,0,1,0-.58l-.38.45a1.71,1.71,0,0,1-.45.41.58.58,0,0,1-.43,0C88.19,84.72,88.11,84.55,88.15,84.28Z"/><path class="cls-10" d="M97.22,84.75a.62.62,0,0,1-.1.31c-.14.28-.31.42-.49.42a4,4,0,0,1-1.18-.16,3,3,0,0,1-1.22,1,1.75,1.75,0,0,1-1.26.09,1.2,1.2,0,0,1-.69-.54,1.45,1.45,0,0,1-.16-.86,2.69,2.69,0,0,1,.3-1,3.84,3.84,0,0,1,.86-1.11,2.65,2.65,0,0,1,1.07-.59,1.74,1.74,0,0,1,1.06,0,1.06,1.06,0,0,1,.75.81A2.14,2.14,0,0,1,96,84.42a4.88,4.88,0,0,0,1,.13l.12,0C97.19,84.6,97.22,84.66,97.22,84.75Zm-3.13.65a1.72,1.72,0,0,0,.6-.58,1.12,1.12,0,0,1-.13-.61,1.71,1.71,0,0,1,.2-.68,1.78,1.78,0,0,1,.17-.27l0,0a.82.82,0,0,0-.71.15,2.34,2.34,0,0,0-.71.88,1.51,1.51,0,0,0-.22.8.45.45,0,0,0,.28.4A.71.71,0,0,0,94.09,85.4Z"/><path class="cls-10" d="M45.13,80a.56.56,0,0,1-.09.32,1.18,1.18,0,0,1-.44.49,6,6,0,0,1-1.16.5,1.68,1.68,0,0,1-1,0c-.28-.1-.43-.26-.44-.49a1.72,1.72,0,0,1,.27-.9,4.19,4.19,0,0,1,.34-.56c-.48-.16-.8-.28-1-.36-.09.16-.16.27-.19.34l-.1.18-.42.76a.85.85,0,0,1-.27.29.43.43,0,0,1-.32,0c-.2-.08-.28-.24-.24-.51a4,4,0,0,1,.46-1.17A9.74,9.74,0,0,1,42,76.8a.94.94,0,0,1,.42-.3.91.91,0,0,1,.53,0,.48.48,0,0,1,.21.12.2.2,0,0,1,0,.19,4.23,4.23,0,0,1-.45.59c-.14.18-.31.4-.49.66l1,.36c.2-.26.46-.58.79-1a.91.91,0,0,1,.4-.31.64.64,0,0,1,.45,0,.49.49,0,0,1,.24.14q0,.08,0,.21a11.18,11.18,0,0,1-.83,1.13A13.31,13.31,0,0,0,43.24,80a.48.48,0,0,0-.07.28.16.16,0,0,0,.12.15.77.77,0,0,0,.5-.08,9.94,9.94,0,0,0,1-.49.36.36,0,0,1,.29,0A.15.15,0,0,1,45.13,80Z"/><path class="cls-10" d="M44,81.34a1.82,1.82,0,0,1,.24-1.14,4.07,4.07,0,0,1,1-1.23,3.8,3.8,0,0,1,1.32-.74,2,2,0,0,1,1.26,0c.11,0,.18.09.19.15a.63.63,0,0,1,0,.31,1.31,1.31,0,0,1,.38.09c.26.09.34.24.23.44a9.83,9.83,0,0,1-.58.84A11.79,11.79,0,0,0,47,81.39a.3.3,0,0,0-.05.23.18.18,0,0,0,.11.14.83.83,0,0,0,.49-.09,9.94,9.94,0,0,0,1-.49.34.34,0,0,1,.28-.05.15.15,0,0,1,.11.16.51.51,0,0,1-.09.31,1.07,1.07,0,0,1-.44.49,5.37,5.37,0,0,1-1.09.52,1.38,1.38,0,0,1-.88.06A.68.68,0,0,1,46,82.3a1.29,1.29,0,0,1-.05-.66,1.57,1.57,0,0,1-1.44.37A.83.83,0,0,1,44,81.34Zm1.8-.23a2,2,0,0,0,.55-.52l1.15-1.52a1.16,1.16,0,0,0-.77.06,2.92,2.92,0,0,0-.83.55,3.52,3.52,0,0,0-.65.88.62.62,0,0,0-.11.44.28.28,0,0,0,.2.22A.51.51,0,0,0,45.75,81.11Z"/><path class="cls-10" d="M50.41,82.22a.77.77,0,0,1,0-.68,1.24,1.24,0,0,1,.23-.32A.56.56,0,0,1,51,81l1.77-.51a.69.69,0,0,1,.35,0,.38.38,0,0,1,.24.25.46.46,0,0,1,0,.38.58.58,0,0,1-.37.29l-1.45.42L52,83.21a.34.34,0,0,1,0,.31.65.65,0,0,1-.34.28.57.57,0,0,1-.44,0,.27.27,0,0,1-.19-.17Zm2.14.75a.83.83,0,0,1,0-.69,1.28,1.28,0,0,1,.24-.32.7.7,0,0,1,.29-.18l1.79-.5a.57.57,0,0,1,.34,0,.38.38,0,0,1,.25.26.45.45,0,0,1,0,.37.63.63,0,0,1-.38.29l-1.45.42L54.13,84a.38.38,0,0,1,0,.31.77.77,0,0,1-.79.32.32.32,0,0,1-.19-.17Z"/><path class="cls-10" d="M54.75,85.15A4.16,4.16,0,0,1,55.22,84a10,10,0,0,1,1.43-2.07.94.94,0,0,1,.43-.29.9.9,0,0,1,.53,0,.38.38,0,0,1,.2.12.19.19,0,0,1,0,.19,4.48,4.48,0,0,1-.45.59l-.45.57a6.85,6.85,0,0,0-.42.63,7.09,7.09,0,0,1,1.24-1,3.24,3.24,0,0,1,1-.45,1.33,1.33,0,0,1,.69,0c.35.13.42.38.22.76a9.19,9.19,0,0,1-.82,1.17,8.27,8.27,0,0,0-.68,1c-.13.24-.11.38.05.44a.77.77,0,0,0,.49-.09,8.82,8.82,0,0,0,1-.49.34.34,0,0,1,.28,0,.17.17,0,0,1,.11.17.79.79,0,0,1-.09.31,1.12,1.12,0,0,1-.44.49,4.56,4.56,0,0,1-1.15.5,1.67,1.67,0,0,1-1.06,0,.66.66,0,0,1-.48-.48,1.24,1.24,0,0,1,.18-.82,9,9,0,0,1,.57-.84,5.71,5.71,0,0,0,.51-.73c.05-.09,0-.15,0-.17s-.22,0-.45.19a6.19,6.19,0,0,0-.8.65,8.12,8.12,0,0,0-.85.9,1.83,1.83,0,0,1-.5.49.51.51,0,0,1-.44,0C54.79,85.58,54.71,85.41,54.75,85.15Z"/><path class="cls-10" d="M64.39,86.67a.74.74,0,0,1-.09.31,1.19,1.19,0,0,1-.44.49,5,5,0,0,1-1.23.52,1.52,1.52,0,0,1-.9,0,.52.52,0,0,1-.38-.43,1.42,1.42,0,0,1,.21-.79,4.28,4.28,0,0,1,.34-.54h0c-1,.85-1.94,1.15-2.71.88a1,1,0,0,1-.65-.6,1.2,1.2,0,0,1,.13-.94,1.63,1.63,0,0,1,.56-.66.75.75,0,0,1,.66-.08c.2.06.25.18.16.35a.49.49,0,0,1-.08.12l-.13.21a.91.91,0,0,0-.13.5.29.29,0,0,0,.21.29,1.1,1.1,0,0,0,.6,0,3.48,3.48,0,0,0,.76-.31l-.1,0a.85.85,0,0,1-.6-.6,1.42,1.42,0,0,1,.19-1,1.77,1.77,0,0,1,.87-.88,1.47,1.47,0,0,1,1.15,0,2.68,2.68,0,0,1,.82.46.5.5,0,0,1,.44,0,.34.34,0,0,1,.21.17.28.28,0,0,1,0,.26,8.64,8.64,0,0,1-.56.73L63,86a7.13,7.13,0,0,0-.46.73.49.49,0,0,0-.07.28.17.17,0,0,0,.12.16.78.78,0,0,0,.48-.08,7.62,7.62,0,0,0,1-.5.35.35,0,0,1,.29,0A.18.18,0,0,1,64.39,86.67ZM63.06,84.5a1.53,1.53,0,0,0-.47-.27.78.78,0,0,0-.58,0,.85.85,0,0,0-.43.41.62.62,0,0,0-.07.47.42.42,0,0,0,.29.29l.24.07A7.69,7.69,0,0,0,63.06,84.5Z"/><path class="cls-10" d="M63.13,88.06a4.17,4.17,0,0,1,.46-1.17A10.43,10.43,0,0,1,65,84.82a1,1,0,0,1,.44-.29.87.87,0,0,1,.52,0,.48.48,0,0,1,.21.12.2.2,0,0,1,0,.19,4.48,4.48,0,0,1-.45.59l-.45.57c-.12.16-.26.37-.42.62a6.92,6.92,0,0,1,1.13-1,3.47,3.47,0,0,1,1-.49,1.29,1.29,0,0,1,.72,0c.19.07.3.16.33.28a.71.71,0,0,1-.11.47,8.08,8.08,0,0,1-.69,1l-.33.44a6.24,6.24,0,0,1,1.71-1.26,1.73,1.73,0,0,1,1.18-.17c.35.12.43.37.23.75a10.31,10.31,0,0,1-.83,1.18,7.46,7.46,0,0,0-.68,1c-.12.23-.11.38.05.43a.74.74,0,0,0,.49-.08c.22-.09.54-.26,1-.49a.34.34,0,0,1,.28,0,.15.15,0,0,1,.11.16.71.71,0,0,1-.09.31,1.15,1.15,0,0,1-.44.5,5.58,5.58,0,0,1-1.14.5,1.77,1.77,0,0,1-1.07,0,.68.68,0,0,1-.48-.48,1.27,1.27,0,0,1,.18-.83,8,8,0,0,1,.58-.83,6.47,6.47,0,0,0,.5-.73c0-.1,0-.15,0-.18s-.23,0-.46.2a6,6,0,0,0-.79.64,9.23,9.23,0,0,0-.85.91,2,2,0,0,1-.5.49.54.54,0,0,1-.45,0,.37.37,0,0,1-.25-.41,1.69,1.69,0,0,1,.22-.72,7.48,7.48,0,0,1,.59-.94l.45-.72c0-.09,0-.15,0-.17s-.24,0-.47.21a7.09,7.09,0,0,0-.78.68,10.63,10.63,0,0,0-.79.88,2.09,2.09,0,0,1-.49.48.54.54,0,0,1-.45,0C63.17,88.49,63.09,88.32,63.13,88.06Z"/><path class="cls-10" d="M74.55,90.2a.74.74,0,0,1-.09.31A1.13,1.13,0,0,1,74,91a5.88,5.88,0,0,1-1.16.5,1.64,1.64,0,0,1-1,0,.74.74,0,0,1-.47-.41,1.81,1.81,0,0,1-1-.08,1.3,1.3,0,0,1-.91-.85,1.77,1.77,0,0,1,.2-1.33,10.2,10.2,0,0,1,.6-1,9.75,9.75,0,0,1,.76-.93.89.89,0,0,1,.43-.29,1,1,0,0,1,.54,0c.24.08.33.19.25.33a5.88,5.88,0,0,1-.45.59l-.19.25-.39.49a2.29,2.29,0,0,1,.72-.21,1.46,1.46,0,0,1,.7.06.82.82,0,0,1,.59.62,1.45,1.45,0,0,1-.18,1,2.6,2.6,0,0,1-.62.76l.11,0a.9.9,0,0,0,.62,0,7.23,7.23,0,0,0,1-.49.36.36,0,0,1,.28,0A.17.17,0,0,1,74.55,90.2Zm-3-.14a1,1,0,0,0,.46-.47c.16-.31.09-.52-.22-.63a.89.89,0,0,0-.56,0,2.4,2.4,0,0,0-.53.27.86.86,0,0,0-.08.54.43.43,0,0,0,.33.31A.74.74,0,0,0,71.52,90.06Z"/><path class="cls-10" d="M74.65,92a.37.37,0,0,1-.25-.25.44.44,0,0,1,0-.37.56.56,0,0,1,.38-.3l1.45-.42-.54-1.34a.32.32,0,0,1,0-.3.62.62,0,0,1,.34-.29.65.65,0,0,1,.45,0,.28.28,0,0,1,.18.17l.58,1.44a.77.77,0,0,1,0,.68,1.65,1.65,0,0,1-.24.33.59.59,0,0,1-.29.17L75,92A.65.65,0,0,1,74.65,92Zm2.14.75a.35.35,0,0,1-.24-.26.5.5,0,0,1,0-.38.59.59,0,0,1,.38-.28l1.44-.42-.53-1.34a.34.34,0,0,1,0-.31.69.69,0,0,1,.35-.29.68.68,0,0,1,.44,0,.27.27,0,0,1,.19.17L79.45,91a.79.79,0,0,1,0,.69,1.44,1.44,0,0,1-.23.32.73.73,0,0,1-.3.18l-1.78.5A.57.57,0,0,1,76.79,92.74Z"/><path class="cls-10" d="M79.14,93.79a.85.85,0,0,1,.1-.62,1.27,1.27,0,0,1,.54-.56.89.89,0,0,1,.7,0,.66.66,0,0,1,.44.38.82.82,0,0,1-.11.62,1.35,1.35,0,0,1-.55.58.89.89,0,0,1-.7,0A.57.57,0,0,1,79.14,93.79ZM80.74,92a.29.29,0,0,1,0-.28l0-.07c.44-.62,1-1.33,1.55-2.11s1.12-1.46,1.57-2a.83.83,0,0,1,1-.32q.52.18.33.54a.77.77,0,0,1-.12.17c-.46.57-1,1.26-1.73,2.06s-1.32,1.49-1.86,2.07a.51.51,0,0,1-.57.13A.37.37,0,0,1,80.74,92Z"/><polygon class="cls-11" points="102.89 66.23 0 37.07 34.18 102.42 102.89 66.23"/><polygon class="cls-12" points="34.18 102.42 102.89 66.23 158.9 97.31 34.18 102.42"/><polygon class="cls-13" points="102.89 66.23 158.9 97.31 204.88 32.28 102.89 66.23"/></g></g></g></svg>