<svg xmlns="http://www.w3.org/2000/svg" xmlns:xlink="http://www.w3.org/1999/xlink" viewBox="0 0 197.31 100.59"><defs><style>.cls-1{isolation:isolate;}.cls-2{fill:#fff;}.cls-3{opacity:0.76;mix-blend-mode:multiply;fill:url(#linear-gradient);}.cls-4{opacity:0.57;fill:url(#linear-gradient-2);}.cls-5{opacity:0.6;fill:url(#linear-gradient-3);}.cls-6{opacity:0.5;}.cls-7{fill:url(#linear-gradient-4);}.cls-8{fill:url(#linear-gradient-5);}.cls-9{fill:#f1f1f1;}.cls-10{opacity:0.46;fill:url(#linear-gradient-6);}.cls-11{opacity:0.67;fill:url(#linear-gradient-7);}.cls-12{opacity:0.35;fill:url(#linear-gradient-8);}</style><linearGradient id="linear-gradient" x1="-235.45" y1="1254.24" x2="-36.12" y2="1254.24" gradientTransform="matrix(0.99, -0.14, -0.07, 1.02, 314.24, -1233.79)" gradientUnits="userSpaceOnUse"><stop offset="0" stop-color="gray"/><stop offset="1" stop-color="#b2b2b2"/></linearGradient><linearGradient id="linear-gradient-2" x1="-148.05" y1="1202.33" x2="-158.85" y2="1241.67" gradientTransform="matrix(0.99, -0.14, -0.07, 1.02, 314.24, -1233.79)" gradientUnits="userSpaceOnUse"><stop offset="0" stop-color="gray"/><stop offset="0.7" stop-color="#818181"/><stop offset="1" stop-color="#b2b2b2"/></linearGradient><linearGradient id="linear-gradient-3" x1="-134.85" y1="1267.39" x2="-139.83" y2="1191.25" gradientTransform="matrix(0.99, -0.14, -0.07, 1.02, 314.24, -1233.79)" gradientUnits="userSpaceOnUse"><stop offset="0" stop-color="#4d4d4d"/><stop offset="1" stop-color="#333"/></linearGradient><linearGradient id="linear-gradient-4" x1="-140.25" y1="1187.78" x2="-112.02" y2="1247.93" gradientTransform="matrix(0.99, -0.14, -0.07, 1.02, 314.24, -1233.79)" gradientUnits="userSpaceOnUse"><stop offset="0" stop-color="#e5e5e5"/><stop offset="1" stop-color="#cbcbcb"/></linearGradient><linearGradient id="linear-gradient-5" x1="-140.71" y1="1187.99" x2="-130.12" y2="1210.57" xlink:href="#linear-gradient-4"/><linearGradient id="linear-gradient-6" x1="-234.45" y1="1215.83" x2="-161.74" y2="1267.81" xlink:href="#linear-gradient"/><linearGradient id="linear-gradient-7" x1="-182.98" y1="1291.64" x2="-98.21" y2="1267.91" gradientTransform="matrix(0.99, -0.14, -0.07, 1.02, 314.24, -1233.79)" gradientUnits="userSpaceOnUse"><stop offset="0" stop-color="gray"/><stop offset="1" stop-color="#b2b2b2" stop-opacity="0"/></linearGradient><linearGradient id="linear-gradient-8" x1="-104.41" y1="1269.83" x2="-16.49" y2="1204.39" gradientTransform="matrix(0.99, -0.14, -0.07, 1.02, 314.24, -1233.79)" gradientUnits="userSpaceOnUse"><stop offset="0" stop-color="#fff"/><stop offset="0.38" stop-color="#b2b2b2" stop-opacity="0"/></linearGradient></defs><title>tplayer7</title><g class="cls-1"><g id="Слой_2" data-name="Слой 2"><g id="Map"><polygon class="cls-2" points="0 44.22 94.27 46.48 197.31 15.54 145.41 92.63 47.45 99.12 0 44.22"/><polygon class="cls-3" points="0 44.22 94.27 46.48 197.31 15.54 145.41 92.63 47.45 99.12 0 44.22"/><path class="cls-2" d="M40.63,77.64C43.07,75.21,96.68,0,96.68,0l54.71,63.32Z"/><path class="cls-4" d="M94.77,69.05s-3-40.22,1.91-69L39.42,79.7,95.8,73.62l.06-4.73Z"/><path class="cls-5" d="M96.68,0l.09.1C97.21,10.46,99.4,65,99,68.43l-4.25.62S91.77,28.83,96.68,0Z"/><g class="cls-6"><path class="cls-7" d="M98.92,70.1l52.47-6.78L96.77.1C97.22,10.46,99.4,65,99,68.43"/><polygon class="cls-8" points="96.69 0 96.69 0 96.68 0.01 96.69 0"/></g><polygon class="cls-9" points="0 44.22 37.36 100.59 156.98 90.95 197.31 15.54 96.62 61.07 0 44.22"/><polygon class="cls-10" points="96.62 61.07 0 44.22 37.36 100.59 96.62 61.07"/><polygon class="cls-11" points="37.36 100.59 96.62 61.07 156.98 90.95 37.36 100.59"/><polygon class="cls-12" points="96.62 61.07 156.98 90.95 197.31 15.54 96.62 61.07"/></g></g></g></svg>