<svg width="99" height="99" viewBox="0 0 99 99" fill="none" xmlns="http://www.w3.org/2000/svg">
<path d="M49.312 0C22.078 0 0 22.078 0 49.312C0 76.546 22.078 98.624 49.312 98.624C76.546 98.624 98.624 76.546 98.624 49.312C98.624 22.078 76.546 0 49.312 0ZM76.688 37.546V39.258C76.688 56.377 63.849 75.778 40.168 75.778C32.75 75.778 26.188 73.781 20.481 70.072C21.622 70.357 22.478 70.357 23.619 70.357C29.611 70.357 35.317 68.36 39.597 64.936C33.891 64.936 29.326 61.227 27.614 56.091C28.185 56.376 29.041 56.376 29.897 56.376C31.038 56.376 32.179 56.091 33.321 55.805C27.329 54.664 23.05 49.528 23.05 43.251V42.966C24.762 44.107 26.759 44.678 28.756 44.678C25.332 42.395 23.05 38.686 23.05 34.121C23.05 31.553 23.621 29.556 24.762 27.559C31.324 35.262 40.74 40.398 51.296 40.969C51.011 40.113 51.011 39.257 51.011 38.116C51.011 30.983 56.717 25.277 63.85 25.277C67.559 25.277 70.983 26.704 73.265 29.271C76.403 28.7 78.971 27.559 81.539 26.133C80.398 29.271 78.401 31.554 75.833 33.266C78.401 32.981 80.969 32.41 83.251 31.269C81.539 33.837 79.541 36.119 76.688 37.546Z" fill="white"/>
</svg>
